<svg xmlns="http://www.w3.org/2000/svg" viewBox="0 0 20 20"><title>Export</title><g id="Layer_2" data-name="Layer 2"><g id="Files_Folders" data-name="Files &amp; Folders"><path id="file_arrow_down" d="M20,6.49V18a2,2,0,0,1-2,2H9a1,1,0,0,1,0-2h8a1,1,0,0,0,1-1V8H14a2,2,0,0,1-2-2V2H3A1,1,0,0,0,2,3v8a1,1,0,0,1-2,0V2A2,2,0,0,1,2,0H13.58a1,1,0,0,1,.71.3l5.42,5.49A1,1,0,0,1,20,6.49ZM5.09,18H4.55a.5.5,0,0,1-.35-.85l5.09-5.06A1,1,0,0,0,7.9,10.71L2.85,15.79A.49.49,0,0,1,2,15.44V15a1,1,0,0,0-2,0v3a2,2,0,0,0,2,2H5.09a1,1,0,1,0,0-2Z"/></g></g></svg>