<svg xmlns="http://www.w3.org/2000/svg" viewBox="0 0 20 20"><title>gridView</title><g id="Layer_2" data-name="Layer 2"><g id="Utils"><path id="grid" d="M6,2V4A2,2,0,0,1,4,6H2A2,2,0,0,1,0,4V2A2,2,0,0,1,2,0H4A2,2,0,0,1,6,2Zm5-2H9A2,2,0,0,0,7,2V4A2,2,0,0,0,9,6h2a2,2,0,0,0,2-2V2A2,2,0,0,0,11,0Zm7,0H16a2,2,0,0,0-2,2V4a2,2,0,0,0,2,2h2a2,2,0,0,0,2-2V2A2,2,0,0,0,18,0ZM4,7H2A2,2,0,0,0,0,9v2a2,2,0,0,0,2,2H4a2,2,0,0,0,2-2V9A2,2,0,0,0,4,7Zm7,0H9A2,2,0,0,0,7,9v2a2,2,0,0,0,2,2h2a2,2,0,0,0,2-2V9A2,2,0,0,0,11,7Zm7,0H16a2,2,0,0,0-2,2v2a2,2,0,0,0,2,2h2a2,2,0,0,0,2-2V9A2,2,0,0,0,18,7ZM4,14H2a2,2,0,0,0-2,2v2a2,2,0,0,0,2,2H4a2,2,0,0,0,2-2V16A2,2,0,0,0,4,14Zm7,0H9a2,2,0,0,0-2,2v2a2,2,0,0,0,2,2h2a2,2,0,0,0,2-2V16A2,2,0,0,0,11,14Zm7,0H16a2,2,0,0,0-2,2v2a2,2,0,0,0,2,2h2a2,2,0,0,0,2-2V16A2,2,0,0,0,18,14Z"/></g></g></svg>