<svg xmlns="http://www.w3.org/2000/svg" viewBox="0 0 20 20"><title>Import</title><g id="Layer_2" data-name="Layer 2"><g id="Files_Folders" data-name="Files &amp; Folders"><path id="file_arrow_up" d="M20,6.49V18a2,2,0,0,1-2,2H9a1,1,0,0,1,0-2h8a1,1,0,0,0,1-1V8H14a2,2,0,0,1-2-2V2H3A1,1,0,0,0,2,3v8a1,1,0,0,1-2,0V2A2,2,0,0,1,2,0H13.58a1,1,0,0,1,.71.3l5.42,5.49A1,1,0,0,1,20,6.49ZM4.49,12H5c.44,0,.67.75.35,1.06L.29,18.22a1.05,1.05,0,0,0,0,1.44,1,1,0,0,0,1.39,0l5.26-5.07C7.25,14.29,8,14.53,8,15v.44a1,1,0,0,0,2,0v-3A2.79,2.79,0,0,0,7.57,10H4.49a1,1,0,1,0,0,2Z"/></g></g></svg>