<svg xmlns="http://www.w3.org/2000/svg" viewBox="0 0 14 20"><title>lockAdd</title><g id="Layer_2" data-name="Layer 2"><g id="Tools"><path id="lock_close_plus_round" d="M12,6H11V4A4.08,4.08,0,0,0,6.16.1,4.24,4.24,0,0,0,3,4.29V6H2A2,2,0,0,0,0,8V18a2,2,0,0,0,2,2H12a2,2,0,0,0,2-2V8A2,2,0,0,0,12,6ZM5,4A2,2,0,0,1,7,2,2.07,2.07,0,0,1,9,4V6H5Zm7,13a1,1,0,0,1-1,1H3a1,1,0,0,1-1-1V9A1,1,0,0,1,3,8h8a1,1,0,0,1,1,1Zm-2-4a1,1,0,0,1-1,1H8v1a1,1,0,0,1-2,0V14H5a1,1,0,0,1,0-2H6V11a1,1,0,0,1,2,0v1H9A1,1,0,0,1,10,13Z"/></g></g></svg>